# xmcd
#
# Track frame offsets:
#	150
#	14480
#	28368
#	43111
#	56535
#	69663
#	81129
#	94276
#	108855
#	122102
#	134167
#	145244
#	159001
#	176602
#	190291
#	202855
#	215836
#	230798
#	245052
#	258523
#
# Disc length: 3592
#
# Revision: 1
# Processed by: cddbd v1.5.1PL0 Copyright (c) Steve Scherf et al.
# Submitted via: CDex 1.51
# Normalized: r0:TDELIM( - )
#
DISCID=310e0614
DTITLE=Various Artist - Swingtime (08/10)
DYEAR=2003
DGENRE=Jazz
TTITLE0=Artie Shaw - Begin the beguine - 19380724
TTITLE1=Teddy Wilson - The way you look tonight - 19361021
TTITLE2=Harry James - Two o'clock jump - 19390306
TTITLE3=Louis Armstrong - Leap frog - 19411116
TTITLE4=Slam Stewart - Blue, brown and beige - 19450907
TTITLE5=Cozy Cole - Comes the don - 19441121
TTITLE6=Glenn Miller - Bugle call rag - 19400428
TTITLE7=Coleman Hawkins - Crazy rhythm - 19431223
TTITLE8=Tommy Dorsey - Opus one - 19441114
TTITLE9=Bobby Hackett - Bugle call rag - 19390717
TTITLE10=Charly Christian - Soft winds - 19391122
TTITLE11=Benny Carter - Black bottom - 19370324
TTITLE12=Lester Young - Somebody loves me - 194512
TTITLE13=Rex Stewart - Tain't like that - 19450126
TTITLE14=Venuti-Lang - Sweet Sue, just you - 19301112
TTITLE15=Lionel Hampton - I've found a new baby - 19391030
TTITLE16=Benny Goodman - Exactly like you - 19360826
TTITLE17=Benny Goodman - If dreams come true - 19371203
TTITLE18=Charlie Barnet - Pompton turnpike - 19400719
TTITLE19=Jimmie Lunceford - Ain't she sweet? - 19390407
EXTD=YEAR: 2003
EXTT0=
EXTT1=
EXTT2=
EXTT3=
EXTT4=
EXTT5=
EXTT6=
EXTT7=
EXTT8=
EXTT9=
EXTT10=
EXTT11=
EXTT12=
EXTT13=
EXTT14=
EXTT15=
EXTT16=
EXTT17=
EXTT18=
EXTT19=
PLAYORDER=
